<?xml version="1.0" encoding="UTF-8" standalone="no"?>
<!-- Created with Inkscape (http://www.inkscape.org/) -->

<svg
   width="512"
   height="512"
   viewBox="0 0 135.46667 135.46667"
   version="1.1"
   id="svg5"
   inkscape:version="1.1 (c4e8f9ed74, 2021-05-24)"
   sodipodi:docname="dv.svg"
   xmlns:inkscape="http://www.inkscape.org/namespaces/inkscape"
   xmlns:sodipodi="http://sodipodi.sourceforge.net/DTD/sodipodi-0.dtd"
   xmlns="http://www.w3.org/2000/svg"
   xmlns:svg="http://www.w3.org/2000/svg">
  <sodipodi:namedview
     id="namedview7"
     pagecolor="#ffffff"
     bordercolor="#666666"
     borderopacity="1.0"
     inkscape:pageshadow="2"
     inkscape:pageopacity="0.0"
     inkscape:pagecheckerboard="0"
     inkscape:document-units="px"
     showgrid="false"
     inkscape:zoom="1.5644531"
     inkscape:cx="278.37203"
     inkscape:cy="278.05243"
     inkscape:window-width="1920"
     inkscape:window-height="979"
     inkscape:window-x="0"
     inkscape:window-y="32"
     inkscape:window-maximized="1"
     inkscape:current-layer="layer1" />
  <defs
     id="defs2" />
  <g
     inkscape:label="Calque 1"
     inkscape:groupmode="layer"
     id="layer1">
    <path
       sodipodi:type="star"
       style="mix-blend-mode:normal;fill:#000000;fill-opacity:1;fill-rule:nonzero;stroke:#ff0000;stroke-width:5.30526;stroke-miterlimit:4;stroke-dasharray:none;stroke-opacity:0.79457015"
       id="path10794"
       inkscape:flatsided="false"
       sodipodi:sides="42"
       sodipodi:cx="-295.65219"
       sodipodi:cy="107.16729"
       sodipodi:r1="93.196373"
       sodipodi:r2="0.93196374"
       sodipodi:arg1="0.73958443"
       sodipodi:arg2="0.81438426"
       inkscape:rounded="0.1"
       inkscape:randomized="0"
       transform="matrix(0.70539379,0,0,0.70670236,276.1602,-8.1425934)"
       inkscape:transform-center-x="-0.69730076"
       inkscape:transform-center-y="-0.33542242"
       d="m -226.80349,169.97987 c -6.21862,6.81622 -61.49847,-68.4672 -68.20908,-62.13476 -6.71061,6.33244 65.24344,65.88132 58.07837,71.69456 -7.16507,5.81325 -50.60708,-76.86835 -58.18654,-71.6068 -7.57946,5.26155 54.69562,74.86951 46.74416,79.54993 -7.95146,4.68041 -38.5852,-83.55239 -46.8642,-79.47927 -8.27899,4.07312 42.926,82.18523 34.36577,85.62827 -8.56023,3.44304 -25.7014,-88.37 -34.495,-85.57629 -8.79359,2.7937 30.19748,87.66508 21.2197,89.79382 -8.97778,2.12875 -12.24347,-91.21357 -21.35523,-89.76169 -9.11176,1.45189 16.79439,91.18664 7.59961,91.95354 -9.19478,0.7669 1.48796,-92.01959 -7.73842,-91.94196 -9.22638,0.0776 3.01615,92.67123 -6.19023,92.05916 -9.20638,-0.61208 15.18614,-90.77004 6.05125,-92.0684 -9.1349,-1.29836 -10.82947,92.0857 -19.8418,90.10832 -9.01233,-1.97737 28.5451,-87.49283 19.70574,-90.13817 -8.83936,-2.64534 -24.43318,89.44313 -33.05013,86.14462 -8.61695,-3.29851 41.26641,-82.26119 32.92004,-86.19442 -8.34636,-3.93323 -37.49108,84.80255 -45.52017,80.25659 -8.0291,-4.54595 53.06588,-75.19195 45.39896,-80.32522 -7.66692,-5.13326 -49.7115,78.26762 -56.97338,72.57577 -7.26187,-5.69186 63.67997,-66.44307 56.86375,-72.66169 -6.81621,-6.21863 -60.82145,69.98432 -67.15389,63.2737 -6.33243,-6.71061 72.87154,-56.20994 67.05829,-63.37501 -5.81324,-7.16507 -70.57274,60.13768 -75.83429,52.55822 -5.26154,-7.57945 80.43528,-44.72118 75.75486,-52.67264 -4.68042,-7.951466 -78.74756,48.94767 -82.82068,40.66867 -4.07312,-8.27899 86.20223,-32.23343 82.75919,-40.79366 -3.44304,-8.560229 -85.16329,36.66426 -87.95699,27.87066 -2.79371,-8.79359 90.04357,-19.02563 87.91482,-28.00341 -2.12875,-8.97778 -89.67661,23.56181 -91.1285,14.45006 -1.45188,-9.11176 91.87348,-5.39284 91.10658,-14.58762 -0.7669,-9.194775 -92.1867,9.93305 -92.26434,0.70667 -0.0776,-9.226379 91.65109,8.36043 92.26317,-0.84595 0.61207,-9.206384 -92.6375,-3.91762 -91.33914,-13.052517 1.29835,-9.134897 89.38136,21.926937 91.35874,12.914607 1.97738,-9.012327 -91.01893,-17.680762 -88.37358,-26.520119 2.64534,-8.839358 85.115,35.003629 88.41351,26.386679 3.29851,-8.616958 -87.36713,-31.048953 -83.4339,-39.395315 3.93323,-8.346361 78.94732,47.298405 83.49328,39.269315 4.54596,-8.029098 -81.76371,-43.723559 -76.63045,-51.390481 5.13326,-7.666922 71.01609,58.536611 76.70795,51.274731 5.69186,-7.261874 -74.33382,-55.421446 -68.1152,-62.237662 6.21862,-6.816216 61.49847,68.467202 68.20908,62.134762 6.71061,-6.33244 -65.24344,-65.881317 -58.07837,-71.694564 7.16507,-5.813246 50.60707,76.868344 58.18653,71.606804 7.57946,-5.26155 -54.69562,-74.869507 -46.74415,-79.549926 7.95146,-4.680419 38.5852,83.552386 46.86419,79.479266 8.279,-4.07312 -42.92599,-82.185234 -34.36576,-85.628272 8.56023,-3.443039 25.7014,88.370002 34.49499,85.576292 8.7936,-2.7937 -30.19747,-87.665078 -21.21969,-89.793825 8.97778,-2.128746 12.24347,91.213575 21.35523,89.761695 9.11175,-1.45189 -16.79439,-91.186638 -7.59961,-91.95354 9.19477,-0.766902 -1.48796,92.01959 7.73842,91.94196 9.22638,-0.0776 -3.01615,-92.67123 6.19023,-92.059156 9.20638,0.612075 -15.18614,90.770036 -6.05125,92.068396 9.1349,1.29836 10.82947,-92.085702 19.8418,-90.108325 9.01233,1.977378 -28.5451,87.492835 -19.70574,90.138175 8.83935,2.64534 24.43317,-89.443131 33.05013,-86.144621 8.61695,3.29851 -41.26641,82.261181 -32.92005,86.194421 8.34637,3.93323 37.49109,-84.802553 45.52018,-80.256594 8.02909,4.545958 -53.06589,75.191954 -45.39896,80.325224 7.66692,5.13326 49.7115,-78.267624 56.97337,-72.575766 7.26188,5.691858 -63.67996,66.443066 -56.86375,72.661686 6.81622,6.21863 60.82146,-69.984316 67.15389,-63.273705 6.33244,6.710611 -72.87153,56.209944 -67.05829,63.375015 5.81325,7.16507 70.57275,-60.137685 75.8343,-52.558225 5.26154,7.579459 -80.43529,44.721187 -75.75487,52.672645 4.68042,7.95147 78.74757,-48.947671 82.82069,-40.668675 4.07312,8.278996 -86.20223,32.233432 -82.7592,40.793665 3.44304,8.56023 85.1633,-36.664256 87.957,-27.870663 2.7937,8.793594 -90.04357,19.025635 -87.91482,28.003413 2.12875,8.97778 89.67661,-23.561814 91.1285,-14.450058 1.45188,9.111758 -91.87348,5.392838 -91.10658,14.587618 0.7669,9.19477 92.1867,-9.933046 92.26433,-0.70667 0.0776,9.22638 -91.65109,-8.360426 -92.26316,0.84595 -0.61207,9.20638 92.6375,3.91762 91.33914,13.05252 -1.29835,9.13489 -89.38136,-21.926938 -91.35874,-12.91461 -1.97738,9.01233 91.01892,17.68076 88.37358,26.52012 -2.64534,8.83936 -85.11501,-35.003631 -88.41352,-26.38668 -3.29851,8.61696 87.36714,31.04895 83.43391,39.39531 -3.93323,8.34637 -78.94733,-47.298398 -83.49328,-39.26931 -4.54596,8.0291 81.76371,43.72356 76.63045,51.39048 -5.13327,7.66692 -71.01609,-58.53661 -76.70795,-51.27473 -5.69186,7.26187 74.33382,55.42145 68.1152,62.23766 z" />
    <circle
       style="fill:#ffff00;fill-opacity:1;fill-rule:nonzero;stroke:#000000;stroke-width:0.26458334;stroke-miterlimit:4;stroke-dasharray:none;stroke-opacity:0.98854536"
       id="path13189"
       cx="67.733337"
       cy="67.733337"
       r="39.6875" />
    <path
       id="text1617"
       style="font-style:normal;font-weight:normal;font-size:73.7836px;line-height:1.25;font-family:sans-serif;fill:#008000;fill-opacity:1;stroke:#000000;stroke-width:0.52916668;stroke-opacity:0.98854536;stroke-miterlimit:4;stroke-dasharray:none"
       d="m 44.529464,41.270509 v 52.81513 h 11.2927 c 3.888486,0 6.987328,-2.76607 9.052309,-7.779309 l -2.895747,-3.863463 c -1.4854,3.767725 -3.766162,5.702108 -6.799511,5.702108 H 48.266997 V 47.211162 h 6.912218 c 5.786996,0 8.841066,7.027708 8.841066,20.503172 0,2.632255 -0.1195,5.014794 -0.352664,7.150304 l 3.169017,4.382047 c 0.601764,-3.377225 0.92118,-7.263855 0.92118,-11.60488 0,-16.373415 -4.500969,-26.371296 -11.93565,-26.371296 z m 22.30717,37.976176 c -0.479159,2.68915 -1.13682,5.055928 -1.962161,7.059645 l 5.906331,7.880849 h 7.553752 L 97.446136,67.779613 H 89.967515 L 74.70867,90.130302 Z m -3.169017,-4.382047 -5.124444,-7.085025 h -7.553751 l 10.989304,14.663254 c 0.791891,-2.008629 1.357121,-4.539676 1.688891,-7.578229 z" />
    <path
       id="path26280"
       style="fill:#0000ff;fill-opacity:1;fill-rule:nonzero;stroke:#000000;stroke-width:0.264583;stroke-miterlimit:4;stroke-dasharray:none;stroke-opacity:0.988545"
       d="m 66.836634,79.246685 -3.169316,-4.38216 c -0.04147,0.37982 -0.08664,0.75176 -0.135393,1.11569 -0.04875,0.36394 -0.101087,0.71965 -0.157096,1.06764 -0.05601,0.34798 -0.115562,0.68811 -0.1788,1.02009 -0.06324,0.33198 -0.130064,0.65612 -0.200504,0.97204 -0.07044,0.31591 -0.144593,0.62366 -0.222208,0.92345 -0.07762,0.2998 -0.158631,0.59127 -0.243398,0.87489 -0.08476,0.28361 -0.17321,0.55944 -0.265099,0.82682 -0.09189,0.26737 -0.187302,0.52665 -0.286288,0.77773 l 2.895947,3.86333 c 0.103169,-0.25046 0.203367,-0.5067 0.301273,-0.76843 0.09791,-0.26173 0.19317,-0.52918 0.285771,-0.80202 0.09261,-0.27284 0.183013,-0.55079 0.27027,-0.83457 0.08726,-0.28379 0.171344,-0.57307 0.253214,-0.86765 0.08187,-0.29457 0.161271,-0.59448 0.237712,-0.89969 0.07644,-0.3052 0.150207,-0.61605 0.221173,-0.93172 0.07097,-0.31568 0.139187,-0.63623 0.20464,-0.96222 0.06545,-0.32599 0.128206,-0.65707 0.188102,-0.99322 z" />
  </g>
</svg>
